<svg width="311" height="172" viewBox="0 0 311 172" fill="none" xmlns="http://www.w3.org/2000/svg">
<path d="M130.972 27.4252L301.97 126.383C306.472 128.988 306.472 133.212 301.97 135.817L224.45 180.679C219.949 183.284 212.65 183.284 208.149 180.679L37.1505 81.7206C32.6489 79.1155 32.6489 74.8918 37.1505 72.2867L114.67 27.4252C119.172 24.8201 126.47 24.8201 130.972 27.4252Z" fill="black" fill-opacity="0.1"/>
<path d="M179.913 180.09L8.91636 81.1309C6.64342 79.8161 5.51754 78.0873 5.5399 76.3632L5.53516 58.6746L277.11 112.92L277.109 130.609C277.067 132.283 275.942 133.949 273.735 135.228L196.215 180.09C191.713 182.695 184.415 182.695 179.913 180.09Z" fill="#1F1F1F"/>
<path d="M102.736 8.96746L273.734 107.926C278.235 110.531 278.235 114.754 273.734 117.36L196.214 162.221C191.712 164.826 184.414 164.826 179.912 162.221L8.91414 63.2629C4.41254 60.6577 4.41254 56.434 8.91415 53.8289L86.434 8.96746C90.9356 6.36235 98.2342 6.36235 102.736 8.96746Z" fill="#303030"/>
<path d="M103.865 7.37747L271.501 104.39C276.003 106.996 276.003 111.219 271.501 113.824L196.218 157.392C191.716 159.997 184.418 159.997 179.916 157.392L12.2793 60.3786C7.77774 57.7735 7.77774 53.5498 12.2793 50.9447L87.5628 7.37747C92.0644 4.77236 99.363 4.77236 103.865 7.37747Z" fill="#484848"/>
<path d="M103.865 5.01907L271.501 102.032C276.003 104.637 276.003 108.861 271.501 111.466L196.218 155.033C191.716 157.638 184.418 157.638 179.916 155.033L12.2793 58.0202C7.77774 55.4151 7.77774 51.1914 12.2793 48.5863L87.5628 5.01907C92.0644 2.41396 99.363 2.41396 103.865 5.01907Z" fill="#585858"/>
<path d="M121.266 58.318L133.343 65.3068C135.593 66.6094 135.593 68.7212 133.343 70.0238L120.517 77.4459C118.266 78.7485 114.617 78.7485 112.366 77.4459L100.29 70.4571C98.0389 69.1546 98.0389 67.0427 100.29 65.7402L113.115 58.318C115.366 57.0154 119.015 57.0154 121.266 58.318Z" fill="#484848"/>
<path d="M144.687 71.8704L157.46 79.2619C159.711 80.5644 159.711 82.6763 157.46 83.9789L144.634 91.401C142.384 92.7036 138.734 92.7036 136.483 91.401L123.711 84.0095C121.46 82.707 121.46 80.5951 123.711 79.2925L136.536 71.8704C138.787 70.5678 142.437 70.5678 144.687 71.8704Z" fill="#484848"/>
<path d="M96.7951 44.156L109.911 51.7462C112.162 53.0488 112.162 55.1607 109.911 56.4632L97.0855 63.8854C94.8347 65.188 91.1854 65.188 88.9346 63.8854L75.8189 56.2952C73.5681 54.9926 73.5681 52.8808 75.8189 51.5782L88.6443 44.156C90.8951 42.8535 94.5443 42.8535 96.7951 44.156Z" fill="#484848"/>
<path d="M71.9604 29.7833L84.9753 37.3151C87.2261 38.6177 87.2261 40.7295 84.9753 42.0321L72.15 49.4542C69.8991 50.7568 66.2499 50.7568 63.9991 49.4542L50.9842 41.9224C48.7334 40.6198 48.7334 38.508 50.9842 37.2054L63.8096 29.7833C66.0604 28.4807 69.7096 28.4807 71.9604 29.7833Z" fill="#484848"/>
<path d="M168.774 85.8117L181.729 93.3087C183.98 94.6113 183.98 96.7232 181.729 98.0257L168.904 105.448C166.653 106.75 163.004 106.75 160.753 105.448L147.798 97.9508C145.547 96.6483 145.547 94.5364 147.798 93.2339L160.624 85.8117C162.874 84.5091 166.524 84.5091 168.774 85.8117Z" fill="#484848"/>
<path d="M194.138 100.483L232.694 122.795C234.945 124.098 234.945 126.21 232.694 127.512L219.869 134.934C217.618 136.237 213.969 136.237 211.718 134.934L173.162 112.622C170.911 111.319 170.911 109.208 173.162 107.905L185.988 100.483C188.238 99.1803 191.888 99.1803 194.138 100.483Z" fill="#484848"/>
<path d="M72.7742 57.4776L85.9949 65.1286C88.2457 66.4311 88.2457 68.543 85.9949 69.8456L73.1695 77.2677C70.9187 78.5703 67.2694 78.5703 65.0186 77.2677L51.7979 69.6168C49.5471 68.3142 49.5471 66.2024 51.7979 64.8998L64.6233 57.4776C66.8741 56.1751 70.5234 56.1751 72.7742 57.4776Z" fill="#484848"/>
<path d="M47.8867 43.075L60.7253 50.5048C62.9761 51.8073 62.9761 53.9192 60.7253 55.2218L47.9 62.6439C45.6491 63.9465 41.9999 63.9465 39.7491 62.6439L26.9104 55.2141C24.6596 53.9115 24.6596 51.7997 26.9104 50.4971L39.7358 43.075C41.9866 41.7724 45.6359 41.7724 47.8867 43.075Z" fill="#484848"/>
<path d="M171.321 114.507L184.366 122.057C186.617 123.359 186.617 125.471 184.366 126.774L171.541 134.196C169.29 135.498 165.641 135.498 163.39 134.196L150.344 126.646C148.093 125.344 148.093 123.232 150.344 121.929L163.17 114.507C165.42 113.204 169.07 113.204 171.321 114.507Z" fill="#484848"/>
<path d="M196.175 128.89L208.966 136.292C211.216 137.595 211.216 139.707 208.966 141.009L196.14 148.432C193.889 149.734 190.24 149.734 187.989 148.432L175.199 141.029C172.948 139.727 172.948 137.615 175.199 136.312L188.024 128.89C190.275 127.588 193.924 127.588 196.175 128.89Z" fill="#484848"/>
<path d="M97.0915 71.5507L159.313 107.559C161.564 108.862 161.564 110.973 159.313 112.276L146.488 119.698C144.237 121.001 140.588 121.001 138.337 119.698L76.1153 83.6899C73.8645 82.3873 73.8645 80.2755 76.1153 78.9729L88.9407 71.5507C91.1915 70.2482 94.8407 70.2482 97.0915 71.5507Z" fill="#484848"/>
<path d="M94.6 15.6319L133.046 37.8808C135.296 39.1833 135.296 41.2952 133.046 42.5977L120.22 50.0199C117.969 51.3225 114.32 51.3225 112.069 50.0199L73.6238 27.7711C71.373 26.4685 71.373 24.3567 73.6238 23.0541L86.4492 15.6319C88.7 14.3294 92.3492 14.3294 94.6 15.6319Z" fill="#484848"/>
<path d="M194.993 73.6483L207.069 80.6371C209.32 81.9397 209.32 84.0515 207.069 85.3541L194.244 92.7763C191.993 94.0788 188.344 94.0788 186.093 92.7763L174.016 85.7875C171.765 84.4849 171.765 82.373 174.016 81.0705L186.842 73.6483C189.092 72.3458 192.742 72.3458 194.993 73.6483Z" fill="#484848"/>
<path d="M218.412 87.2007L231.184 94.5922C233.435 95.8948 233.435 98.0066 231.184 99.3092L218.359 106.731C216.108 108.034 212.459 108.034 210.208 106.731L197.436 99.3398C195.185 98.0373 195.185 95.9254 197.436 94.6229L210.261 87.2007C212.512 85.8981 216.161 85.8981 218.412 87.2007Z" fill="#484848"/>
<path d="M170.52 59.4864L183.636 67.0766C185.886 68.3791 185.886 70.491 183.636 71.7935L170.81 79.2157C168.559 80.5183 164.91 80.5183 162.659 79.2157L149.543 71.6255C147.293 70.3229 147.293 68.2111 149.543 66.9085L162.369 59.4864C164.62 58.1838 168.269 58.1838 170.52 59.4864Z" fill="#484848"/>
<path d="M145.685 45.1136L158.7 52.6454C160.951 53.948 160.951 56.0598 158.7 57.3624L145.875 64.7846C143.624 66.0871 139.974 66.0871 137.724 64.7846L124.709 57.2527C122.458 55.9502 122.458 53.8383 124.709 52.5357L137.534 45.1136C139.785 43.811 143.434 43.811 145.685 45.1136Z" fill="#484848"/>
<path d="M242.501 101.142L255.456 108.639C257.707 109.942 257.707 112.053 255.456 113.356L242.63 120.778C240.38 122.081 236.73 122.081 234.48 120.778L221.525 113.281C219.274 111.979 219.274 109.867 221.525 108.564L234.35 101.142C236.601 99.8395 240.25 99.8395 242.501 101.142Z" fill="#484848"/>
<path d="M121.266 55.9594L133.343 62.9482C135.593 64.2507 135.593 66.3626 133.343 67.6651L120.517 75.0873C118.266 76.3899 114.617 76.3899 112.366 75.0873L100.29 68.0985C98.0389 66.7959 98.0389 64.6841 100.29 63.3815L113.115 55.9594C115.366 54.6568 119.015 54.6568 121.266 55.9594Z" fill="#696969"/>
<path d="M144.687 69.5122L157.46 76.9037C159.711 78.2063 159.711 80.3181 157.46 81.6207L144.634 89.0429C142.384 90.3454 138.734 90.3454 136.483 89.0429L123.711 81.6514C121.46 80.3488 121.46 78.2369 123.711 76.9344L136.536 69.5122C138.787 68.2096 142.437 68.2096 144.687 69.5122Z" fill="#696969"/>
<path d="M96.7951 41.7979L109.911 49.3881C112.162 50.6907 112.162 52.8025 109.911 54.1051L97.0855 61.5272C94.8347 62.8298 91.1854 62.8298 88.9346 61.5272L75.8189 53.937C73.5681 52.6345 73.5681 50.5226 75.8189 49.2201L88.6443 41.7979C90.8951 40.4953 94.5443 40.4953 96.7951 41.7979Z" fill="#696969"/>
<path d="M71.9604 27.4244L84.9753 34.9562C87.2261 36.2588 87.2261 38.3706 84.9753 39.6732L72.15 47.0954C69.8991 48.3979 66.2499 48.3979 63.9991 47.0954L50.9842 39.5635C48.7334 38.261 48.7334 36.1491 50.9842 34.8465L63.8096 27.4244C66.0604 26.1218 69.7096 26.1218 71.9604 27.4244Z" fill="#696969"/>
<path d="M168.774 83.4535L181.729 90.9506C183.98 92.2532 183.98 94.365 181.729 95.6676L168.904 103.09C166.653 104.392 163.004 104.392 160.753 103.09L147.798 95.5927C145.547 94.2901 145.547 92.1783 147.798 90.8757L160.624 83.4535C162.874 82.151 166.524 82.151 168.774 83.4535Z" fill="#696969"/>
<path d="M194.138 98.1239L232.694 120.436C234.945 121.739 234.945 123.851 232.694 125.153L219.869 132.576C217.618 133.878 213.969 133.878 211.718 132.576L173.162 110.263C170.911 108.961 170.911 106.849 173.162 105.546L185.988 98.1239C188.238 96.8214 191.888 96.8214 194.138 98.1239Z" fill="#696969"/>
<path d="M72.7742 55.119L85.9949 62.7699C88.2457 64.0725 88.2457 66.1844 85.9949 67.4869L73.1695 74.9091C70.9187 76.2116 67.2694 76.2116 65.0186 74.9091L51.7979 67.2581C49.5471 65.9556 49.5471 63.8437 51.7979 62.5412L64.6233 55.119C66.8741 53.8164 70.5234 53.8164 72.7742 55.119Z" fill="#696969"/>
<path d="M47.8867 40.7163L60.7253 48.1461C62.9761 49.4487 62.9761 51.5606 60.7253 52.8631L47.9 60.2853C45.6491 61.5879 41.9999 61.5879 39.7491 60.2853L26.9104 52.8555C24.6596 51.5529 24.6596 49.441 26.9104 48.1385L39.7358 40.7163C41.9866 39.4138 45.6359 39.4138 47.8867 40.7163Z" fill="#696969"/>
<path d="M171.321 112.149L184.366 119.698C186.617 121.001 186.617 123.113 184.366 124.415L171.541 131.837C169.29 133.14 165.641 133.14 163.39 131.837L150.344 124.288C148.093 122.985 148.093 120.873 150.344 119.571L163.17 112.149C165.42 110.846 169.07 110.846 171.321 112.149Z" fill="#696969"/>
<path d="M196.175 126.532L208.966 133.934C211.216 135.236 211.216 137.348 208.966 138.651L196.14 146.073C193.889 147.375 190.24 147.375 187.989 146.073L175.199 138.671C172.948 137.368 172.948 135.256 175.199 133.954L188.024 126.532C190.275 125.229 193.924 125.229 196.175 126.532Z" fill="#696969"/>
<path d="M97.0915 69.1923L159.313 105.201C161.564 106.503 161.564 108.615 159.313 109.918L146.488 117.34C144.237 118.642 140.588 118.642 138.337 117.34L76.1153 81.3315C73.8645 80.0289 73.8645 77.9171 76.1153 76.6145L88.9407 69.1923C91.1915 67.8898 94.8407 67.8898 97.0915 69.1923Z" fill="#696969"/>
<path d="M94.6 13.2738L133.046 35.5226C135.296 36.8252 135.296 38.937 133.046 40.2396L120.22 47.6618C117.969 48.9643 114.32 48.9643 112.069 47.6618L73.6238 25.4129C71.373 24.1104 71.373 21.9985 73.6238 20.696L86.4492 13.2738C88.7 11.9712 92.3492 11.9712 94.6 13.2738Z" fill="#696969"/>
<path d="M194.993 71.2894L207.069 78.2782C209.32 79.5808 209.32 81.6927 207.069 82.9952L194.244 90.4174C191.993 91.7199 188.344 91.7199 186.093 90.4174L174.016 83.4286C171.765 82.126 171.765 80.0142 174.016 78.7116L186.842 71.2894C189.092 69.9869 192.742 69.9869 194.993 71.2894Z" fill="#696969"/>
<path d="M218.412 84.8418L231.184 92.2333C233.435 93.5359 233.435 95.6477 231.184 96.9503L218.359 104.372C216.108 105.675 212.459 105.675 210.208 104.372L197.436 96.9809C195.185 95.6784 195.185 93.5665 197.436 92.264L210.261 84.8418C212.512 83.5392 216.161 83.5392 218.412 84.8418Z" fill="#696969"/>
<path d="M170.52 57.1282L183.636 64.7184C185.886 66.021 185.886 68.1328 183.636 69.4354L170.81 76.8576C168.559 78.1601 164.91 78.1601 162.659 76.8576L149.543 69.2674C147.293 67.9648 147.293 65.8529 149.543 64.5504L162.369 57.1282C164.62 55.8256 168.269 55.8256 170.52 57.1282Z" fill="#696969"/>
<path d="M145.685 42.7547L158.7 50.2865C160.951 51.5891 160.951 53.701 158.7 55.0035L145.875 62.4257C143.624 63.7282 139.974 63.7282 137.724 62.4257L124.709 54.8938C122.458 53.5913 122.458 51.4794 124.709 50.1769L137.534 42.7547C139.785 41.4521 143.434 41.4521 145.685 42.7547Z" fill="#696969"/>
<path d="M242.501 98.7839L255.456 106.281C257.707 107.583 257.707 109.695 255.456 110.998L242.63 118.42C240.38 119.723 236.73 119.723 234.48 118.42L221.525 110.923C219.274 109.62 219.274 107.509 221.525 106.206L234.35 98.7839C236.601 97.4813 240.25 97.4813 242.501 98.7839Z" fill="#696969"/>
</svg>
