<svg width="384" height="357" viewBox="0 0 384 357" fill="none" xmlns="http://www.w3.org/2000/svg">
<path fill-rule="evenodd" clip-rule="evenodd" d="M9.74085 356.132C8.11538 356.132 6.5846 355.122 6.01648 353.489C5.29843 351.437 6.37945 349.188 8.4389 348.462L9.68562 348.029V301.079H9.6146C7.95757 301.079 6.40312 300.014 5.86656 298.349C5.19585 296.274 6.3321 294.049 8.39945 293.378L110.954 260.135L129.615 190.5C130.175 188.393 132.337 187.147 134.444 187.707C136.235 188.188 137.411 189.829 137.372 191.605L182.135 203.599C182.987 202.044 184.826 201.208 186.617 201.689C188.724 202.249 189.971 204.411 189.41 206.518L164.247 300.416C163.908 301.679 162.969 302.689 161.746 303.115L11.0507 355.911C10.6167 356.061 10.1748 356.132 9.74085 356.132Z" fill="#1F1F1F"/>
<path fill-rule="evenodd" clip-rule="evenodd" d="M5.00648 351.398C3.38101 351.398 1.85023 350.388 1.2821 348.754C0.564056 346.703 1.64507 344.454 3.70452 343.728L4.95124 343.294V296.345H4.88023C3.2232 296.345 1.66874 295.28 1.13218 293.615C0.461478 291.54 1.59773 289.314 3.66507 288.644L106.22 255.4L124.881 185.766C125.441 183.659 127.603 182.412 129.71 182.972C131.501 183.454 132.677 185.095 132.637 186.87L177.401 198.864C178.253 197.31 180.092 196.473 181.883 196.955C183.99 197.515 185.236 199.677 184.676 201.784L159.513 295.682C159.174 296.945 158.235 297.955 157.011 298.381L6.31632 351.177C5.88234 351.327 5.44046 351.398 5.00648 351.398Z" fill="#262626"/>
<path fill-rule="evenodd" clip-rule="evenodd" d="M301.607 212.231C299.524 212.231 297.44 211.955 295.412 211.41L275.994 206.21C274.984 205.934 274.124 205.271 273.603 204.372C273.074 203.464 272.932 202.383 273.208 201.373L285.123 156.91C285.391 155.9 286.054 155.032 286.962 154.511C287.869 153.99 288.942 153.848 289.952 154.116L328.79 164.524C330.897 165.084 332.143 167.254 331.583 169.353L324.868 194.406C322.059 204.9 312.496 212.231 301.607 212.231Z" fill="#1C1C1C"/>
<path fill-rule="evenodd" clip-rule="evenodd" d="M251.991 222.828C249.324 222.828 246.665 222.481 244.077 221.786L21.727 162.212C5.354 157.817 -4.39881 140.923 -0.0116262 124.55L10.9958 83.4557C11.2641 82.4773 11.8874 81.633 12.7554 81.1122C13.3472 80.7414 14.0416 80.5362 14.7912 80.5283H14.7991H14.807H14.8149C15.2252 80.5283 15.6197 80.5914 15.9906 80.7098L289.953 154.116C292.06 154.684 293.307 156.846 292.746 158.953L281.739 200.04C278.141 213.462 265.91 222.828 251.991 222.828Z" fill="#1F1F1F"/>
<path fill-rule="evenodd" clip-rule="evenodd" d="M357.039 180.124C356.7 180.124 356.361 180.076 356.021 179.99L13.7892 88.2848C12.7714 88.0165 11.9113 87.3537 11.3905 86.4462C10.8697 85.5388 10.7277 84.4657 10.996 83.4557L27.7399 20.9698C30.9908 8.82617 42.0614 0.34375 54.6627 0.34375C57.0772 0.34375 59.4839 0.659375 61.8274 1.29063L380.987 86.8092C381.997 87.0775 382.857 87.7403 383.378 88.6477C383.907 89.5552 384.049 90.6283 383.773 91.6383L360.85 177.196C360.377 178.964 358.783 180.124 357.039 180.124Z" fill="#303030"/>
<path fill-rule="evenodd" clip-rule="evenodd" d="M328.01 145C326.008 145 323.998 144.732 322.045 144.211C309.8 140.924 302.501 128.289 305.788 116.045C308.473 106.005 317.603 99 327.985 99C329.995 99 331.997 99.2603 333.949 99.7892C346.203 103.068 353.494 115.703 350.215 127.947C347.521 137.987 338.392 145 328.01 145Z" fill="#4A4A4A"/>
<path fill-rule="evenodd" clip-rule="evenodd" d="M323.204 143.567C321.263 143.567 319.314 143.306 317.42 142.801C305.545 139.614 298.467 127.359 301.655 115.484C304.259 105.747 313.112 98.9531 323.181 98.9531C325.13 98.9531 327.071 99.2056 328.964 99.7185C340.848 102.898 347.918 115.153 344.738 127.028C342.126 136.765 333.273 143.567 323.204 143.567Z" fill="#A79BA7"/>
<path fill-rule="evenodd" clip-rule="evenodd" d="M90.2726 144.537C89.9333 144.537 89.5861 144.497 89.2468 144.403L39.1492 130.981C37.0424 130.413 35.7957 128.251 36.3639 126.144C36.9241 124.045 39.0861 122.79 41.1929 123.358L91.2905 136.78C93.3973 137.341 94.644 139.511 94.0759 141.609C93.6103 143.377 92.0164 144.537 90.2726 144.537Z" fill="#303030"/>
<path fill-rule="evenodd" clip-rule="evenodd" d="M5.00586 404.328C2.82805 404.328 1.06055 402.561 1.06055 400.383V247.652C1.06055 245.474 2.82805 243.714 5.00586 243.714C7.18367 243.714 8.95117 245.474 8.95117 247.652V400.383C8.95117 402.561 7.18367 404.328 5.00586 404.328Z" fill="#1C1C1C"/>
</svg>
