<svg width="343" height="201" viewBox="0 0 343 201" fill="none" xmlns="http://www.w3.org/2000/svg">
<path fill-rule="evenodd" clip-rule="evenodd" d="M276.434 68.794C312.863 68.794 342.394 98.3252 342.394 134.754C342.394 171.183 312.863 200.714 276.434 200.714H63.2121C28.8428 200.714 0.980469 172.852 0.980469 138.483C0.980469 104.114 28.8428 76.2516 63.2121 76.2516C64.4889 76.2516 65.7552 76.2943 67.0125 76.37C71.1367 54.0805 90.6748 37.1973 114.159 37.1973C123.783 37.1973 132.744 40.035 140.254 44.9165C149.038 18.807 173.714 0 202.785 0C239.213 0 268.745 29.5312 268.745 65.96C268.745 67.0636 268.716 68.1605 268.663 69.2506C271.212 68.9514 273.804 68.7925 276.433 68.7925L276.434 68.794Z" fill="#1F1F1F"/>
<path fill-rule="evenodd" clip-rule="evenodd" d="M248.782 200.714H63.2121C28.8421 200.714 0.980469 172.853 0.980469 138.483C0.980469 104.114 28.8421 76.2526 63.2121 76.2526C64.4889 76.2526 65.7552 76.2953 67.0125 76.371C71.1367 54.0807 90.6748 37.1982 114.159 37.1982C123.783 37.1982 132.744 40.036 140.254 44.9175C145.277 29.9858 155.498 17.4443 168.765 9.44161C205.145 -12.5008 241.094 32.2777 241.094 65.9617C241.094 67.0653 241.065 68.1622 241.012 69.2523C243.561 68.9532 246.153 68.7942 248.782 68.7942C285.211 68.7942 314.742 98.3255 314.742 134.754C314.742 171.183 285.211 200.714 248.782 200.714Z" fill="#303030"/>
<path fill-rule="evenodd" clip-rule="evenodd" d="M169.889 66.4248C167.582 68.5488 163.989 68.3988 161.865 66.0911C159.742 63.7835 159.891 60.1907 162.199 58.0668C166.97 53.6621 172.613 50.388 179.363 48.6246C185.917 46.913 193.432 46.6738 202.111 48.2782C211.991 50.1053 220.515 54.8474 227.024 61.4975C233.722 68.3396 238.286 77.1752 239.998 86.909C240.538 90.0024 238.469 92.9481 235.376 93.4879C232.282 94.0277 229.336 91.9584 228.797 88.865C227.482 81.3909 224.013 74.6426 218.935 69.4544C214 64.4132 207.543 60.8183 200.066 59.4365C193.093 58.147 187.204 58.2999 182.208 59.6045C177.409 60.858 173.355 63.2257 169.889 66.4248Z" fill="#5E5E5E"/>
</svg>
