<svg width="280" height="519" viewBox="0 0 280 519" fill="none" xmlns="http://www.w3.org/2000/svg">
<path d="M393.054 161.095C392.024 62.0796 316.359 -1.01759 217.348 0.0119224C126.375 0.958281 62.4223 38.9235 44.8929 126.796C43.2299 135.139 43.606 143.767 45.8789 151.968L47.6449 158.339C49.7792 166.036 48.1794 174.288 43.3209 180.628L3.52241 234.162C-2.12406 241.527 1.66137 252.262 10.6736 254.468L41.7806 262.07C47.1777 263.389 49.0862 270.081 45.1978 274.048L35.2036 284.256C32.8476 286.664 33.3268 290.631 36.1896 292.405L44.8058 297.735C47.9102 299.655 48.1596 304.082 45.2849 306.339L38.5694 311.609C35.7144 313.855 35.9401 318.25 39.0128 320.19L54.6812 330.081L40.8937 373.222C35.2789 390.795 50.1038 408.142 68.3381 405.331L114.757 398.179C122.502 396.984 130.081 401.145 133.225 408.32L155.862 459.93H363.376L322.319 346.478C315.429 327.44 320.739 306.062 335.872 292.615C393.43 241.484 393.268 181.515 393.054 161.095Z" fill="#1C1C1C"/>
<path d="M335.872 292.619C393.43 241.484 393.268 181.515 393.054 161.095C392.024 62.0796 316.359 -1.01759 217.348 0.0119224C206.158 0.130712 195.38 0.807814 185.045 2.06699C267.675 13.649 327.371 73.2221 328.286 161.095C328.495 181.515 328.662 241.484 271.104 292.619C255.966 306.066 250.656 327.444 257.546 346.482L299.242 459.93H363.376L322.318 346.482C315.429 327.444 320.738 306.066 335.872 292.619Z" fill="#484848"/>
<path d="M138.693 468.412V511.9C138.693 516.509 143.013 519.895 147.488 518.79L375.976 462.401C380.066 461.391 382.379 457.059 380.945 453.096L365.689 410.937C364.445 407.496 360.787 405.568 357.243 406.482L144.015 461.542C140.883 462.349 138.693 465.176 138.693 468.412Z" fill="#4A4A4A"/>
<path d="M339.514 143.843C340.706 141.621 341.581 139.218 342.08 136.652C344.626 123.526 336.552 110.376 323.236 103.989C323.885 89.3182 311.812 75.4158 294.588 71.9155C294.41 71.8799 294.232 71.8521 294.053 71.8205C289.959 61.8421 280.088 53.6575 267.437 51.0837C259.208 49.4127 251.186 50.3947 244.51 53.3803C236.056 46.4192 223.116 44.2097 210.564 48.6644C206.41 50.1413 202.672 52.2201 199.429 54.7266C191.078 49.4919 179.603 48.1852 168.437 52.1489C161.492 54.6157 155.687 58.7655 151.474 63.814C141.147 61.0581 128.678 64.2417 119.001 73.1786C112.321 79.3438 108.171 87.1483 106.769 94.9409C100.41 97.2534 94.3282 101.589 89.529 107.742C77.6382 122.979 78.0817 143.569 90.515 153.738C93.2353 155.967 96.308 157.507 99.5707 158.398C101.82 173.402 122.268 185.15 147.17 185.15C149.043 185.15 150.892 185.075 152.709 184.944C151.68 187.355 151.126 189.882 151.126 192.491C151.126 208.104 170.789 220.874 195.668 221.911C197.758 229.514 204.565 236.123 214.159 240.561L235.351 277.6C236.551 279.699 238.784 280.989 241.2 280.989H266.035C270.224 280.989 273.396 277.208 272.667 273.082L267.912 246.176C269.919 246.335 271.955 246.445 274.033 246.445C299.633 246.445 320.536 234.032 321.787 218.427C325.252 216.839 328.344 214.503 330.831 211.41C335.262 205.895 337.035 198.906 336.39 191.755C339.292 190.202 341.894 188.1 344.04 185.431C353.215 174.015 350.993 156.284 339.514 143.843Z" fill="#4A4A4A"/>
<path d="M339.516 143.843C340.708 141.625 341.583 139.218 342.082 136.652C344.628 123.526 336.554 110.376 323.238 103.989C323.887 89.3182 311.814 75.4158 294.59 71.9155C294.411 71.8798 294.233 71.8521 294.055 71.8205C289.961 61.8421 280.089 53.6575 267.438 51.0837C259.21 49.4127 251.188 50.3947 244.512 53.3803C236.058 46.4192 223.118 44.2097 210.566 48.6644C208.815 49.286 207.156 50.0384 205.561 50.862C205.964 50.9332 206.368 51.0006 206.772 51.0837C219.423 53.6575 229.295 61.8421 233.389 71.8205C233.567 71.8521 233.745 71.8798 233.924 71.9155C251.148 75.4158 263.217 89.3182 262.572 103.989C275.888 110.376 283.962 123.526 281.416 136.652C280.917 139.218 280.042 141.625 278.85 143.843C290.333 156.284 292.55 174.015 283.372 185.431C281.226 188.1 278.624 190.202 275.726 191.755C276.371 198.906 274.597 205.895 270.162 211.41C267.68 214.503 264.587 216.839 261.119 218.427C260.493 226.271 254.898 233.303 246.238 238.36C232.478 246.398 227.438 263.765 235.349 277.596L235.353 277.6C236.553 279.695 238.782 280.989 241.201 280.989H266.032C270.222 280.989 273.397 277.208 272.669 273.082L267.913 246.172C269.921 246.335 271.956 246.441 274.035 246.441C299.634 246.441 320.533 234.028 321.784 218.427C325.253 216.839 328.346 214.503 330.828 211.41C335.263 205.895 337.037 198.906 336.392 191.751C339.29 190.202 341.892 188.1 344.042 185.427C353.216 174.015 350.995 156.284 339.516 143.843Z" fill="#252525"/>
<path d="M188.726 104.212C185.166 104.212 181.613 105.556 180.747 108.44L162.192 168.908C162.094 169.292 162 169.676 162 169.868C162 172.944 166.52 175.059 169.882 175.059C171.997 175.059 173.634 174.385 174.112 172.56L177.766 159.774H199.781L203.432 172.56C203.914 174.385 205.547 175.059 207.662 175.059C211.027 175.059 215.544 172.849 215.544 169.868C215.544 169.579 215.45 169.292 215.352 168.908L196.8 108.44C195.934 105.556 192.378 104.212 188.726 104.212ZM180.36 149.969L188.726 120.457L197.086 149.969H180.36Z" fill="#A79BA7"/>
<path d="M226.5 108.635V171.118C226.5 173.715 229.575 175.059 232.748 175.059C235.826 175.059 238.999 173.715 238.999 171.118V108.635C238.999 105.94 235.826 104.788 232.748 104.788C229.575 104.788 226.5 105.94 226.5 108.635Z" fill="#A79BA7"/>
</svg>
