<svg width="31" height="30" viewBox="0 0 31 30" fill="none" xmlns="http://www.w3.org/2000/svg">
<path d="M26.0003 0H5C2 0 0.5 1.5 0.5 4.5L0.500885 25.5C0.500885 28.5 2.00031 30 5.00031 30H26.0003C29.0003 30 30.5003 28.5 30.5003 25.5V4.5C30.5003 1.5 29.0003 0 26.0003 0ZM10.5003 23.7501H6.75031V10H10.5003V23.7501ZM8.62531 8.415C7.41781 8.415 6.43781 7.42751 6.43781 6.21C6.43781 4.9925 7.41781 4.005 8.62531 4.005C9.83281 4.005 10.8128 4.9925 10.8128 6.21C10.8128 7.42751 9.83407 8.415 8.62531 8.415ZM25.5004 23.7501H21.7504V16.7451C21.7504 12.535 16.7502 12.8538 16.7502 16.7451V23.7501H13.0002V10H16.7502V12.2062C18.4953 8.97375 25.5004 8.73501 25.5004 15.3013V23.7501Z" fill="white"/>
</svg>
