<svg width="99" height="135" viewBox="0 0 99 135" fill="none" xmlns="http://www.w3.org/2000/svg">
<path fill-rule="evenodd" clip-rule="evenodd" d="M49.5273 0.60791C57.9093 0.60791 65.5264 4.0329 71.0434 9.5509C76.5604 15.0689 79.9854 22.6859 79.9854 31.0679V71.8829C79.9854 75.2509 77.2554 77.9799 73.8884 77.9799H25.1654C21.7974 77.9799 19.0684 75.2499 19.0684 71.8829V31.0679C19.0684 14.3159 32.7743 0.608917 49.5273 0.608917V0.60791ZM62.4224 18.1719C59.1094 14.8589 54.5443 12.8029 49.5273 12.8029C39.4823 12.8029 31.2634 21.0219 31.2634 31.0669V65.7839H67.7924V31.0669C67.7924 26.0509 65.7354 21.4849 62.4224 18.1719Z" fill="#1F1F1F"/>
<path d="M90.7415 44.3071H8.31448C3.94149 44.3071 0.396484 47.8521 0.396484 52.2251V134.652C0.396484 139.025 3.94149 142.57 8.31448 142.57H90.7415C95.1145 142.57 98.6595 139.025 98.6595 134.652V52.2251C98.6595 47.8521 95.1145 44.3071 90.7415 44.3071Z" fill="#303030"/>
<path d="M76.8655 44.3071H8.31448C3.94149 44.3071 0.396484 47.8521 0.396484 52.2251V134.652C0.396484 139.025 3.94149 142.57 8.31448 142.57H76.8655C81.2385 142.57 84.7835 139.025 84.7835 134.652V52.2251C84.7835 47.8521 81.2385 44.3071 76.8655 44.3071Z" fill="#1F1F1F"/>
<path fill-rule="evenodd" clip-rule="evenodd" d="M49.5271 62.168C59.4851 62.168 67.5581 70.241 67.5581 80.199C67.5581 87.727 62.9431 94.177 56.3891 96.877L62.4371 119.52H36.6161L42.6651 96.877C36.1111 94.177 31.4961 87.728 31.4961 80.199C31.4961 70.241 39.5691 62.168 49.5271 62.168Z" fill="#4A4A4A"/>
<path fill-rule="evenodd" clip-rule="evenodd" d="M52.195 62.3652C60.888 63.6542 67.558 71.1482 67.558 80.1992C67.558 87.7272 62.944 94.1772 56.389 96.8772L62.438 119.52H41.952L48.001 96.8772C41.447 94.1772 36.832 87.7272 36.832 80.1992C36.832 71.1472 43.503 63.6542 52.195 62.3652Z" fill="#A79BA7"/>
</svg>
