<svg width="122" height="146" viewBox="0 0 122 146" fill="none" xmlns="http://www.w3.org/2000/svg">
<path fill-rule="evenodd" clip-rule="evenodd" d="M62.5462 0.978499L119.668 25.4588C121.116 26.079 122.002 27.424 122.002 28.9987V75.7622C122.002 110.079 97.0368 139.721 63.248 145.611L61.6903 145.883C61.2312 145.963 60.8267 145.963 60.3668 145.883L58.8091 145.611C25.0203 139.721 0.0546875 110.079 0.0546875 75.7622V28.9987C0.0546875 27.424 0.942162 26.079 2.38893 25.4588L59.5109 0.978499C60.517 0.547857 61.5416 0.547857 62.5462 0.978499Z" fill="#1F1F1F"/>
<path fill-rule="evenodd" clip-rule="evenodd" d="M62.5463 0.978836L119.668 25.4591C121.116 26.0793 122.003 27.4244 122.003 28.999V75.7625C122.003 109.079 98.4706 137.987 66.1794 145.033C94.7951 135.594 114.966 108.531 114.966 77.6869V30.9234C114.966 29.3488 114.078 28.0037 112.632 27.3835L55.5097 2.90324C55.4242 2.86703 55.3394 2.83391 55.2539 2.8031L59.5118 0.978072C60.5171 0.548201 61.5417 0.548195 62.5463 0.978836Z" fill="#262626"/>
<path d="M61.0269 94.9684C77.3245 94.9684 90.5362 81.7566 90.5362 65.459C90.5362 49.1615 77.3245 35.9497 61.0269 35.9497C44.7294 35.9497 31.5176 49.1615 31.5176 65.459C31.5176 81.7566 44.7294 94.9684 61.0269 94.9684Z" fill="#A79BA7"/>
<path fill-rule="evenodd" clip-rule="evenodd" d="M61.0283 35.9497C77.3257 35.9497 90.5377 49.1617 90.5377 65.459C90.5377 81.7564 77.3257 94.9684 61.0283 94.9684C59.9583 94.9684 58.9021 94.9098 57.8613 94.7989C72.6695 93.2188 84.2044 80.6863 84.2044 65.459C84.2044 50.231 72.6695 37.6992 57.8613 36.1192C58.9021 36.0083 59.9583 35.9497 61.0283 35.9497Z" fill="#4A4A4A"/>
<path fill-rule="evenodd" clip-rule="evenodd" d="M43.5716 69.8674C41.5933 67.8891 41.5933 64.6812 43.5716 62.7029C45.55 60.7246 48.7578 60.7246 50.7362 62.7029L55.4216 67.3883L71.4963 52.7997C73.5624 50.9199 76.7611 51.0702 78.6408 53.1363C80.5205 55.2025 80.3703 58.4011 78.3041 60.2808L58.8559 77.9309L58.8282 77.9595C56.8499 79.9378 53.642 79.9378 51.6637 77.9595L43.5716 69.8674Z" fill="#1F1F1F"/>
</svg>
